<?xml version="1.0" encoding="UTF-8"?>
<svg xmlns="http://www.w3.org/2000/svg" xmlns:xlink="http://www.w3.org/1999/xlink" width="337.83pt" height="102.55pt" viewBox="0 0 337.83 102.55" version="1.1">
<defs>
<clipPath id="clip1">
  <path d="M 236 25 L 287 25 L 287 102.550781 L 236 102.550781 Z M 236 25 "/>
</clipPath>
<clipPath id="clip2">
  <path d="M 292 25 L 337.828125 25 L 337.828125 81 L 292 81 Z M 292 25 "/>
</clipPath>
</defs>
<g id="surface1">
<path style=" stroke:none;fill-rule:nonzero;fill:rgb(0%,50.979614%,79.214478%);fill-opacity:1;" d="M 32.539063 68.164063 L 32.347656 68.308594 L 32.148438 68.425781 C 28.578125 70.894531 23.25 72.546875 18.878906 72.546875 L 18.871094 72.546875 C 12.464844 72.40625 10.128906 70.140625 10.003906 63.972656 C 10.140625 56.867188 12.519531 54.679688 20.519531 54.171875 L 31.566406 53.65625 L 32.058594 53.636719 L 32.539063 53.621094 Z M 52.65625 71.660156 C 52.300781 70.464844 51.300781 69.730469 50.097656 69.730469 C 49.773438 69.75 49.476563 69.769531 49.085938 69.855469 C 47.375 70.269531 46.425781 70.394531 45.109375 70.488281 C 42.609375 70.605469 42.171875 69.632813 42.003906 66.824219 L 42.003906 28.378906 C 41.929688 27.488281 41.464844 26.601563 40.78125 26.0625 L 40.53125 25.90625 C 40.453125 25.839844 40.371094 25.761719 40.265625 25.707031 C 38.179688 24.476563 34.710938 23.492188 31.757813 22.746094 L 31.539063 22.679688 C 28.039063 21.835938 24.167969 21.386719 20.34375 21.386719 C 18.089844 21.386719 16.058594 21.558594 15.246094 21.660156 C 13.566406 21.824219 9.023438 22.582031 7.5 23.101563 C 7.058594 23.242188 5.621094 23.925781 5.574219 25.277344 C 5.601563 25.980469 6.394531 28.226563 6.394531 28.226563 C 6.910156 29.800781 7.457031 30.183594 8.449219 30.386719 C 9.25 30.476563 10.96875 30.117188 12.117188 29.917969 C 15.082031 29.371094 17.015625 29.164063 18.402344 29.148438 C 20.195313 29.121094 22.453125 29.09375 25.09375 29.476563 C 30.113281 30.246094 32.050781 31.789063 32.050781 31.789063 L 32.050781 46.722656 L 31.605469 46.734375 L 20.882813 47.003906 C 6.539063 47.457031 -0.09375 53.144531 0 64.609375 C -0.0234375 69.816406 1.609375 73.992188 4.71875 76.695313 C 7.605469 79.226563 11.839844 80.5625 16.933594 80.5625 L 16.953125 80.5625 C 22.804688 80.5625 27.832031 78.765625 32.734375 74.878906 L 33.203125 74.519531 L 33.445313 75.0625 C 34.625 77.660156 36.636719 79.34375 39.394531 80.046875 C 40.632813 80.386719 42.046875 80.5625 43.855469 80.5625 C 44.320313 80.5625 44.785156 80.539063 45.203125 80.492188 C 46.839844 80.269531 49.015625 79.96875 51.4375 78.824219 C 52.769531 78.191406 53.710938 77.410156 53.640625 76.007813 C 53.585938 74.769531 52.65625 71.660156 52.65625 71.660156 "/>
<path style=" stroke:none;fill-rule:nonzero;fill:rgb(0%,50.979614%,79.214478%);fill-opacity:1;" d="M 211.171875 80.308594 L 205.953125 80.308594 C 205.148438 80.308594 204.480469 80.042969 204.066406 79.585938 C 203.644531 79.09375 203.460938 78.433594 203.460938 77.527344 L 203.460938 28.128906 C 203.421875 27.199219 203.660156 26.523438 204.136719 26.070313 C 204.550781 25.648438 205.164063 25.46875 205.996094 25.46875 L 210.714844 25.46875 C 211.589844 25.46875 212.183594 25.636719 212.648438 26.023438 C 213.121094 26.421875 213.371094 27.082031 213.355469 27.867188 L 213.40625 29.175781 L 213.453125 30.285156 L 214.195313 29.476563 C 216.40625 27.09375 220.199219 24.25 225.660156 24.25 C 226.429688 24.25 227.769531 24.367188 228.941406 24.585938 C 229.925781 24.765625 230.300781 25.761719 230.230469 26.277344 C 230.230469 26.539063 230.21875 26.746094 230.1875 26.929688 L 229.40625 31.914063 C 229.355469 32.78125 228.5625 33.417969 227.890625 33.417969 C 227.285156 33.398438 226.945313 33.347656 226.5625 33.28125 C 225.992188 33.195313 225.359375 33.074219 224.230469 33.074219 C 220.589844 33.074219 216.515625 35.492188 213.796875 39.238281 L 213.703125 39.351563 L 213.703125 77.527344 C 213.703125 78.375 213.496094 79.046875 213.070313 79.53125 C 212.660156 80.023438 211.980469 80.308594 211.171875 80.308594 "/>
<path style=" stroke:none;fill-rule:nonzero;fill:rgb(0%,50.979614%,79.214478%);fill-opacity:1;" d="M 178.988281 46.875 L 155.03125 46.875 C 155.363281 34.789063 159.972656 29.847656 167.546875 29.847656 C 174.925781 29.847656 179.097656 33.898438 179.097656 43.375 C 179.097656 44.117188 179.097656 46 178.988281 46.875 M 167.773438 22.152344 C 154.367188 22.152344 144.261719 31.480469 144.261719 52.699219 C 144.261719 72.152344 153.378906 81.707031 170.519531 81.707031 C 173.234375 81.707031 176.464844 81.390625 179.546875 80.761719 C 180.027344 80.671875 180.523438 80.539063 181.011719 80.429688 C 182.953125 79.898438 184.921875 79.085938 185.644531 78.746094 C 186.71875 78.335938 187.546875 77.507813 187.613281 76.46875 C 187.316406 74.917969 186.925781 73.339844 186.472656 71.824219 C 186.0625 70.800781 185.140625 70.15625 184.1875 70.214844 C 183.863281 70.214844 179.253906 71.21875 178.988281 71.292969 C 176.34375 71.976563 173.445313 72.375 170.738281 72.375 C 158.546875 72.375 154.914063 66.546875 154.914063 54.558594 L 154.914063 53.679688 L 186.859375 53.679688 C 187.804688 53.589844 188.535156 52.875 188.671875 51.929688 C 188.671875 51.800781 188.679688 51.660156 188.703125 51.511719 C 188.804688 49.417969 188.878906 47.21875 188.878906 45.441406 C 188.878906 30.71875 181.722656 22.152344 167.773438 22.152344 "/>
<g clip-path="url(#clip1)" clip-rule="nonzero">
<path style=" stroke:none;fill-rule:nonzero;fill:rgb(0%,50.979614%,79.214478%);fill-opacity:1;" d="M 243.378906 102.550781 L 243.03125 102.550781 C 241.148438 102.550781 239.589844 102.417969 238.0625 102.117188 C 237.132813 101.949219 236.78125 100.734375 236.96875 99.070313 C 236.96875 99.070313 237.082031 97.292969 237.351563 96.042969 C 237.59375 94.761719 238.203125 94.183594 238.875 94.183594 L 239.070313 94.183594 L 239.589844 94.203125 C 239.894531 94.226563 240.328125 94.285156 240.734375 94.316406 C 241.660156 94.417969 242.613281 94.519531 243.351563 94.519531 C 249.578125 94.449219 252.9375 92.167969 255.320313 86.402344 L 258.191406 79.390625 L 258.464844 78.644531 L 258.566406 78.339844 L 258.464844 78 L 239.28125 27.28125 C 239.199219 27.058594 239.171875 26.832031 239.171875 26.621094 C 239.171875 26.425781 239.199219 26.0625 239.464844 25.761719 C 239.660156 25.546875 240 25.390625 240.375 25.390625 L 247.644531 25.390625 C 248.699219 25.390625 249.488281 25.953125 249.722656 26.765625 L 262.351563 63.101563 L 263.191406 65.53125 L 264.058594 63.101563 L 277.117188 27.035156 C 277.390625 26.027344 278.210938 25.378906 279.160156 25.378906 L 279.214844 25.378906 L 279.410156 25.390625 L 285.441406 25.390625 C 285.933594 25.390625 286.289063 25.488281 286.542969 25.691406 C 286.792969 25.902344 286.890625 26.226563 286.875 26.46875 C 286.875 26.8125 286.792969 27.105469 286.691406 27.390625 L 265.234375 84.960938 C 260.558594 97.785156 254.636719 102.550781 243.378906 102.550781 "/>
</g>
<g clip-path="url(#clip2)" clip-rule="nonzero">
<path style=" stroke:none;fill-rule:nonzero;fill:rgb(0%,50.979614%,79.214478%);fill-opacity:1;" d="M 329.851563 80.167969 C 328.605469 80.167969 327.574219 79.585938 326.984375 78.511719 L 315.523438 60.816406 L 315.117188 60.21875 L 314.730469 60.816406 L 303.28125 78.496094 C 302.675781 79.585938 301.644531 80.167969 300.378906 80.167969 L 300.195313 80.148438 L 294.066406 80.148438 C 293.566406 80.148438 293.203125 80.023438 292.898438 79.800781 C 292.601563 79.554688 292.382813 79.117188 292.425781 78.703125 C 292.425781 78.191406 292.601563 77.65625 292.898438 77.214844 L 309.488281 52.042969 L 309.679688 51.789063 L 309.488281 51.53125 L 294.207031 27.972656 C 293.933594 27.535156 293.800781 27.164063 293.808594 26.8125 C 293.808594 25.824219 294.71875 25.230469 295.585938 25.21875 L 301.339844 25.21875 C 302.578125 25.21875 303.550781 25.757813 303.976563 26.601563 L 314.738281 42.925781 L 315.117188 43.488281 L 315.488281 42.925781 L 326.191406 26.703125 C 326.667969 25.761719 327.648438 25.21875 328.773438 25.21875 L 334.664063 25.21875 C 335.515625 25.21875 336.445313 25.824219 336.445313 26.808594 C 336.445313 27.164063 336.316406 27.535156 336.046875 27.929688 L 320.757813 51.53125 L 320.578125 51.789063 L 320.757813 52.042969 L 337.300781 77.160156 C 337.65625 77.65625 337.832031 78.171875 337.832031 78.675781 C 337.863281 79.117188 337.660156 79.554688 337.367188 79.800781 C 337.050781 80.023438 336.6875 80.148438 336.171875 80.148438 L 330.082031 80.148438 "/>
</g>
<path style=" stroke:none;fill-rule:nonzero;fill:rgb(0%,50.979614%,79.214478%);fill-opacity:1;" d="M 81.511719 80.316406 C 78.800781 80.316406 76.191406 79.878906 73.925781 79.050781 C 71.851563 78.332031 70.210938 77.292969 69.042969 76.007813 C 65.78125 72.421875 65.492188 67.960938 65.449219 62.070313 L 65.449219 5.769531 C 65.449219 5.441406 65.59375 5.105469 65.804688 4.855469 C 67.738281 2.699219 70.230469 1.085938 73.226563 0.0703125 C 73.410156 0.00390625 73.539063 0.00390625 73.6875 0.00390625 C 73.925781 0.00390625 74.558594 0.0429688 75.078125 0.546875 C 75.535156 1.027344 75.757813 1.683594 75.75 2.535156 L 75.75 62.421875 C 75.773438 65.542969 76.515625 68.019531 77.886719 69.566406 C 79.058594 70.851563 80.953125 71.507813 83.359375 71.507813 C 83.945313 71.507813 84.605469 71.460938 85.394531 71.367188 C 87.144531 71.113281 88.832031 70.617188 89.941406 70.269531 C 90.246094 70.140625 90.519531 70.085938 90.84375 70.085938 C 91.792969 70.085938 92.621094 70.757813 92.945313 71.757813 C 92.945313 71.757813 93.792969 74.632813 93.902344 75.992188 C 93.96875 77.160156 92.921875 77.945313 91.953125 78.289063 C 90.71875 78.78125 86.371094 80.316406 81.511719 80.316406 "/>
<path style=" stroke:none;fill-rule:nonzero;fill:rgb(0%,50.979614%,79.214478%);fill-opacity:1;" d="M 134.109375 71.722656 C 133.792969 70.722656 132.964844 70.050781 131.984375 70.050781 C 131.683594 70.050781 131.394531 70.113281 131.097656 70.226563 C 129.480469 70.746094 127.046875 71.417969 124.75 71.460938 L 124.507813 71.496094 C 122.035156 71.496094 120.179688 70.820313 118.992188 69.519531 C 117.878906 68.289063 117.070313 66.292969 117.011719 62.5625 L 117.011719 62.347656 L 117.316406 32.707031 L 129.445313 32.707031 C 130.097656 32.707031 130.632813 32.628906 131.136719 32.246094 C 131.742188 31.777344 131.835938 30.992188 131.820313 30.5625 L 131.820313 26.828125 C 131.835938 26.027344 131.597656 25.449219 131.144531 25.078125 C 130.609375 24.691406 130.011719 24.660156 129.554688 24.660156 L 117.316406 24.660156 L 117.316406 6.203125 C 117.316406 5.328125 117.105469 4.691406 116.652344 4.21875 C 116.148438 3.722656 115.496094 3.664063 115.265625 3.664063 C 115.109375 3.664063 114.980469 3.664063 114.75 3.734375 C 114.042969 3.996094 112.132813 4.660156 110.050781 6.128906 C 109.324219 6.652344 108.59375 7.308594 107.851563 8.050781 C 107.652344 8.308594 107.535156 8.625 107.535156 8.941406 L 107.242188 24.46875 L 100.976563 24.46875 C 100.367188 24.46875 99.703125 24.621094 99.226563 25.125 C 98.757813 25.636719 98.636719 26.277344 98.636719 26.929688 L 98.636719 30.339844 C 98.648438 31.070313 98.617188 31.710938 99.183594 32.335938 C 99.828125 32.921875 100.453125 32.875 101.183594 32.902344 L 107.070313 32.902344 L 106.511719 60.785156 L 106.523438 61.984375 C 106.546875 67.894531 106.832031 72.375 110.101563 75.996094 C 112.617188 78.726563 117.191406 80.292969 122.628906 80.316406 C 127.550781 80.316406 131.371094 79.011719 133.121094 78.289063 C 134.058594 77.894531 135.109375 77.140625 135.066406 75.96875 C 135.066406 74.859375 134.109375 71.722656 134.109375 71.722656 "/>
</g>
</svg>
